<svg width="72" height="72" viewBox="0 0 72 72" fill="none" xmlns="http://www.w3.org/2000/svg">
<g clip-path="url(#clip0_351_505)">
<path d="M60.0007 24.0002C60.0092 20.1148 59.0742 16.2854 57.2761 12.841C55.478 9.39671 52.8705 6.44043 49.6777 4.22621C46.485 2.012 42.8023 0.60606 38.9463 0.129198C35.0902 -0.347663 31.176 0.118812 27.54 1.48854C23.904 2.85827 20.655 5.0903 18.072 7.99285C15.489 10.8954 13.6493 14.3817 12.711 18.1521C11.7728 21.9225 11.7639 25.8644 12.6853 29.639C13.6067 33.4136 15.4307 36.9081 18.0007 39.8222V64.5002C18.0007 65.913 18.3997 67.2972 19.1519 68.4931C19.904 69.6891 20.9787 70.6483 22.2522 71.2603C23.5256 71.8722 24.946 72.112 26.3498 71.9521C27.7535 71.7921 29.0835 71.2389 30.1867 70.3562L35.0647 66.4562C35.3305 66.2439 35.6605 66.1283 36.0007 66.1283C36.3408 66.1283 36.6709 66.2439 36.9367 66.4562L41.8147 70.3562C42.9178 71.2389 44.2478 71.7921 45.6516 71.9521C47.0554 72.112 48.4758 71.8722 49.7492 71.2603C51.0226 70.6483 52.0973 69.6891 52.8495 68.4931C53.6016 67.2972 54.0007 65.913 54.0007 64.5002V39.8222C57.8656 35.4578 59.9998 29.8299 60.0007 24.0002V24.0002ZM36.0007 6.0002C39.5607 6.0002 43.0409 7.05588 46.0009 9.03375C48.961 11.0116 51.2681 13.8228 52.6305 17.1119C53.9929 20.401 54.3493 24.0202 53.6548 27.5118C52.9603 31.0035 51.2459 34.2108 48.7286 36.7281C46.2113 39.2455 43.004 40.9598 39.5123 41.6543C36.0206 42.3489 32.4014 41.9924 29.1124 40.63C25.8233 39.2677 23.0121 36.9605 21.0342 34.0005C19.0564 31.0404 18.0007 27.5603 18.0007 24.0002C18.0054 19.2278 19.9034 14.6522 23.278 11.2775C26.6526 7.90292 31.2282 6.00497 36.0007 6.0002V6.0002ZM47.1517 65.8442C46.8978 65.97 46.6131 66.0199 46.3317 65.988C46.0502 65.956 45.7839 65.8436 45.5647 65.6642L40.6867 61.7642C39.359 60.6947 37.7055 60.1116 36.0007 60.1116C34.2959 60.1116 32.6423 60.6947 31.3147 61.7642L26.4397 65.6642C26.2195 65.8409 25.954 65.9519 25.6736 65.9845C25.3932 66.017 25.1094 65.9698 24.8546 65.8482C24.5998 65.7266 24.3846 65.5356 24.2335 65.2972C24.0825 65.0587 24.0018 64.7825 24.0007 64.5002V44.7542C27.6426 46.8799 31.7838 48.0001 36.0007 48.0001C40.2176 48.0001 44.3588 46.8799 48.0007 44.7542V64.5002C48.004 64.7823 47.9256 65.0593 47.775 65.2978C47.6243 65.5363 47.4078 65.726 47.1517 65.8442V65.8442Z" fill="#939393"/>
</g>
<defs>
<clipPath id="clip0_351_505">
<rect width="72" height="72" fill="white"/>
</clipPath>
</defs>
</svg>
