<svg width="72" height="72" viewBox="0 0 72 72" fill="currentColor" xmlns="http://www.w3.org/2000/svg">
<g clip-path="url(#clip0_202_1222)">
<path d="M67.4995 11.9277H58.2415C57.6483 11.9279 57.0684 12.1039 56.5752 12.4335C56.0819 12.7632 55.6975 13.2317 55.4705 13.7798C55.2435 14.3279 55.1841 14.931 55.2998 15.5128C55.4155 16.0947 55.7011 16.6292 56.1205 17.0487L59.3785 20.3067L48.6205 31.0617C48.0489 31.608 47.2887 31.9129 46.498 31.9129C45.7074 31.9129 44.9471 31.608 44.3755 31.0617L43.8655 30.5487C42.1514 28.9109 39.8718 27.997 37.501 27.997C35.1302 27.997 32.8507 28.9109 31.1365 30.5487L15.8365 45.8487C15.2728 46.414 14.9568 47.1801 14.9579 47.9785C14.959 48.7768 15.2772 49.542 15.8425 50.1057C16.4079 50.6695 17.1739 50.9855 17.9723 50.9844C18.7706 50.9833 19.5358 50.665 20.0995 50.0997L35.3995 34.7997C35.9708 34.2528 36.7312 33.9474 37.522 33.9474C38.3129 33.9474 39.0733 34.2528 39.6445 34.7997L40.1545 35.3127C41.8694 36.9492 44.1487 37.8622 46.519 37.8622C48.8894 37.8622 51.1687 36.9492 52.8835 35.3127L63.6415 24.5547L66.8995 27.8127C67.3205 28.2254 67.8537 28.5049 68.4326 28.6163C69.0114 28.7277 69.6103 28.6661 70.1544 28.4392C70.6984 28.2123 71.1636 27.8301 71.4917 27.3404C71.8199 26.8507 71.9965 26.2752 71.9995 25.6857V16.4277C71.9995 15.2343 71.5254 14.0897 70.6815 13.2458C69.8376 12.4018 68.693 11.9277 67.4995 11.9277Z" fill="currentColor"/>
<path d="M69 65.928H15C12.6131 65.928 10.3239 64.9798 8.63604 63.292C6.94821 61.6041 6 59.3149 6 56.928V3C6 2.20435 5.68393 1.44129 5.12132 0.87868C4.55871 0.316071 3.79565 0 3 0C2.20435 0 1.44129 0.316071 0.87868 0.87868C0.316071 1.44129 0 2.20435 0 3L0 56.928C0.00476357 60.9048 1.58665 64.7173 4.39866 67.5293C7.21067 70.3414 11.0232 71.9232 15 71.928H69C69.7956 71.928 70.5587 71.6119 71.1213 71.0493C71.6839 70.4867 72 69.7236 72 68.928C72 68.1323 71.6839 67.3693 71.1213 66.8067C70.5587 66.2441 69.7956 65.928 69 65.928Z" fill="currentColor"/>
</g>
<defs>
<clipPath id="clip0_202_1222">
<rect width="72" height="72" fill="white"/>
</clipPath>
</defs>
</svg>
