<svg width="14" height="14" viewBox="0 0 14 14" fill="none" xmlns="http://www.w3.org/2000/svg">
<path d="M13.3309 0.66964C12.9343 0.273671 12.3968 0.0512695 11.8364 0.0512695C11.276 0.0512695 10.7385 0.273671 10.3419 0.66964L0.854592 10.157C0.582905 10.4271 0.367487 10.7485 0.220799 11.1024C0.0741119 11.4564 -0.000932153 11.8359 8.73905e-06 12.2191V13.4166C8.73905e-06 13.5714 0.0614669 13.7197 0.170863 13.8291C0.280259 13.9385 0.428632 14 0.583342 14H1.78093C2.16404 14.0011 2.54356 13.9261 2.89752 13.7795C3.25147 13.633 3.57284 13.4176 3.84301 13.146L13.3309 3.65806C13.7267 3.2615 13.949 2.72412 13.949 2.16385C13.949 1.60358 13.7267 1.06619 13.3309 0.66964V0.66964ZM3.01818 12.3211C2.68918 12.648 2.24465 12.832 1.78093 12.8333H1.16668V12.2191C1.16609 11.9892 1.2111 11.7614 1.29911 11.5491C1.38713 11.3367 1.51639 11.1439 1.67943 10.9818L8.87951 3.78172L10.2212 5.12339L3.01818 12.3211ZM12.5055 2.83322L11.0437 4.29564L9.70201 2.95689L11.1644 1.49447C11.2525 1.40657 11.3571 1.33688 11.4721 1.28938C11.5871 1.24188 11.7104 1.2175 11.8348 1.21764C11.9593 1.21777 12.0825 1.24242 12.1974 1.29017C12.3123 1.33792 12.4167 1.40784 12.5046 1.49593C12.5925 1.58403 12.6622 1.68857 12.7097 1.8036C12.7572 1.91863 12.7816 2.04189 12.7815 2.16634C12.7813 2.29079 12.7567 2.41399 12.7089 2.52892C12.6612 2.64384 12.5913 2.74824 12.5032 2.83614L12.5055 2.83322Z" fill="#939393"/>
</svg>
