<svg width="39" height="38" viewBox="0 0 39 38" fill="none" xmlns="http://www.w3.org/2000/svg">
<rect x="0.5" width="38" height="38" rx="15" fill="white"/>
<path fill-rule="evenodd" clip-rule="evenodd" d="M27.708 19.1947C27.708 18.5884 27.6536 18.0054 27.5525 17.4458H19.5V20.7531H24.1015C23.9032 21.8218 23.3009 22.7274 22.3953 23.3336V25.4789H25.1585C26.7753 23.9904 27.708 21.7985 27.708 19.1947Z" fill="#4285F4"/>
<path fill-rule="evenodd" clip-rule="evenodd" d="M19.5 27.55C21.8085 27.55 23.7439 26.7844 25.1585 25.4786L22.3953 23.3333C21.6297 23.8463 20.6503 24.1494 19.5 24.1494C17.2731 24.1494 15.3882 22.6454 14.7159 20.6245H11.8594V22.8397C13.2662 25.634 16.1577 27.55 19.5 27.55Z" fill="#34A853"/>
<path fill-rule="evenodd" clip-rule="evenodd" d="M14.7161 20.6244C14.5451 20.1114 14.4479 19.5634 14.4479 18.9999C14.4479 18.4364 14.5451 17.8884 14.7161 17.3754V15.1602H11.8596C11.2805 16.3144 10.9502 17.6202 10.9502 18.9999C10.9502 20.3795 11.2805 21.6854 11.8596 22.8396L14.7161 20.6244Z" fill="#FBBC05"/>
<path fill-rule="evenodd" clip-rule="evenodd" d="M19.5 13.8508C20.7553 13.8508 21.8823 14.2821 22.7684 15.1294L25.2207 12.6771C23.74 11.2974 21.8046 10.4502 19.5 10.4502C16.1577 10.4502 13.2662 12.3662 11.8594 15.1605L14.7159 17.3757C15.3882 15.3548 17.2731 13.8508 19.5 13.8508Z" fill="#EA4335"/>
</svg>
