<svg width="72" height="72" viewBox="0 0 72 72" fill="currentColor" xmlns="http://www.w3.org/2000/svg">
<g clip-path="url(#clip0_352_511)">
<path d="M60.0003 36.0004C58.1598 36.0001 56.3441 36.4237 54.6938 37.2385C53.0435 38.0532 51.6031 39.2371 50.4843 40.6984L50.2743 40.6084C51.0993 38.0525 51.223 35.3219 50.6323 32.7018C50.0417 30.0818 48.7584 27.6683 46.9165 25.7136C45.0746 23.7589 42.7416 22.3346 40.1612 21.5894C37.5808 20.8442 34.8477 20.8056 32.2473 21.4774L31.9743 20.9614C34.1534 19.0226 35.5507 16.3556 35.9043 13.4604C36.2579 10.5651 35.5435 7.64024 33.895 5.23395C32.2465 2.82767 29.7771 1.10513 26.9496 0.389157C24.122 -0.326816 21.1304 0.0129215 18.5354 1.3447C15.9404 2.67648 13.9202 4.90888 12.8532 7.62354C11.7863 10.3382 11.746 13.3488 12.7398 16.091C13.7336 18.8333 15.6933 21.119 18.2517 22.5198C20.8101 23.9206 23.7916 24.3404 26.6373 23.7004L26.8563 24.1114C23.8564 26.4134 21.8384 29.765 21.2074 33.4933C20.5764 37.2215 21.3791 41.0505 23.4543 44.2114L17.7993 49.5004C15.2432 48.0882 12.2598 47.6565 9.40824 48.2863C6.55668 48.9161 4.03262 50.5641 2.30906 52.9215C0.585499 55.2789 -0.219268 58.1839 0.0455625 61.0922C0.310393 64.0004 1.62665 66.7123 3.74767 68.7196C5.86869 70.7269 8.6489 71.8919 11.5673 71.9963C14.4857 72.1006 17.3421 71.1372 19.601 69.2865C21.86 67.4358 23.3666 64.8248 23.8384 61.9429C24.3103 59.061 23.7151 56.1059 22.1643 53.6314L27.6783 48.4774C30.7067 50.5016 34.369 51.3529 37.9797 50.872C41.5905 50.391 44.9023 48.6108 47.2953 45.8644L48.1323 46.2214C47.7691 48.6438 48.156 51.1193 49.2409 53.3154C50.3258 55.5115 52.0567 57.323 54.2012 58.5065C56.3457 59.6901 58.8011 60.1891 61.2374 59.9364C63.6738 59.6838 65.9745 58.6916 67.8305 57.0932C69.6865 55.4947 71.0089 53.3666 71.6201 50.9946C72.2313 48.6227 72.102 46.1205 71.2495 43.8242C70.397 41.5278 68.8623 39.5474 66.8514 38.1488C64.8404 36.7503 62.4497 36.0006 60.0003 36.0004V36.0004ZM18.0003 12.0004C18.0003 10.8138 18.3522 9.65372 19.0114 8.66702C19.6707 7.68033 20.6078 6.91129 21.7042 6.45717C22.8005 6.00304 24.0069 5.88422 25.1708 6.11573C26.3347 6.34724 27.4038 6.91869 28.2429 7.7578C29.082 8.59692 29.6535 9.66601 29.885 10.8299C30.1165 11.9938 29.9977 13.2002 29.5435 14.2965C29.0894 15.3929 28.3204 16.33 27.3337 16.9893C26.347 17.6485 25.187 18.0004 24.0003 18.0004C22.409 18.0004 20.8828 17.3683 19.7576 16.2431C18.6324 15.1179 18.0003 13.5917 18.0003 12.0004ZM12.0003 66.0004C10.8136 66.0004 9.65354 65.6485 8.66685 64.9893C7.68015 64.33 6.91112 63.3929 6.45699 62.2965C6.00286 61.2002 5.88404 59.9938 6.11556 58.8299C6.34707 57.666 6.91851 56.5969 7.75763 55.7578C8.59674 54.9187 9.66584 54.3472 10.8297 54.1157C11.9936 53.8842 13.2 54.003 14.2964 54.4572C15.3927 54.9113 16.3298 55.6803 16.9891 56.667C17.6484 57.6537 18.0003 58.8138 18.0003 60.0004C18.0003 61.5917 17.3681 63.1179 16.2429 64.2431C15.1177 65.3683 13.5916 66.0004 12.0003 66.0004ZM36.0003 45.0004C34.0523 44.9966 32.1582 44.3609 30.6024 43.1888C29.0466 42.0167 27.913 40.3715 27.372 38.5002C26.831 36.6289 26.9116 34.6326 27.602 32.8111C28.2923 30.9895 29.5549 29.4411 31.2003 28.3984L32.4213 27.7474C33.6481 27.2138 34.9786 26.9603 36.3157 27.0056C37.6529 27.0509 38.9631 27.3937 40.1511 28.0091C41.3391 28.6245 42.3749 29.4971 43.1832 30.5632C43.9915 31.6294 44.5519 32.8624 44.8236 34.1724C45.0954 35.4824 45.0716 36.8366 44.7541 38.1363C44.4366 39.436 43.8334 40.6485 42.9882 41.6857C42.143 42.7229 41.0773 43.5586 39.8685 44.132C38.6596 44.7054 37.3382 45.0021 36.0003 45.0004V45.0004ZM60.0003 54.0004C58.8136 54.0004 57.6535 53.6485 56.6668 52.9893C55.6801 52.33 54.9111 51.3929 54.457 50.2965C54.0029 49.2002 53.884 47.9938 54.1156 46.8299C54.3471 45.666 54.9185 44.5969 55.7576 43.7578C56.5967 42.9187 57.6658 42.3472 58.8297 42.1157C59.9936 41.8842 61.2 42.003 62.2964 42.4572C63.3927 42.9113 64.3298 43.6803 64.9891 44.667C65.6484 45.6537 66.0003 46.8138 66.0003 48.0004C66.0003 49.5917 65.3681 51.1179 64.2429 52.2431C63.1177 53.3683 61.5916 54.0004 60.0003 54.0004Z" fill="currentColor"/>
</g>
<defs>
<clipPath id="clip0_352_511">
<rect width="72" height="72" fill="white"/>
</clipPath>
</defs>
</svg>
