<svg width="24" height="24" viewBox="0 0 24 24" fill="currentColor" xmlns="http://www.w3.org/2000/svg">
<g clip-path="url(#clip0_406_1909)">
<path d="M2.30995 17.192L7.80995 22.692C7.04092 23.0052 6.19659 23.0845 5.38267 22.9201C4.56875 22.7557 3.82143 22.3548 3.23428 21.7676C2.64713 21.1805 2.24624 20.4332 2.08182 19.6192C1.9174 18.8053 1.99676 17.961 2.30995 17.192ZM7.32695 1.97996C7.58686 1.92692 7.81506 1.7728 7.96134 1.5515C8.10761 1.33021 8.15999 1.05987 8.10695 0.79996C8.05391 0.540048 7.89979 0.311852 7.67849 0.165574C7.4572 0.0192954 7.18686 -0.0330835 6.92695 0.0199598C4.2453 0.489755 1.84396 1.96511 0.21295 4.14496C0.0649283 4.35854 0.00585842 4.62135 0.0482522 4.87773C0.090646 5.1341 0.231174 5.36391 0.44007 5.51847C0.648966 5.67303 0.909824 5.7402 1.16739 5.70576C1.42496 5.67132 1.659 5.53797 1.81995 5.33396C3.1541 3.54729 5.12729 2.34553 7.32695 1.97996ZM23.2 16.023C22.941 15.9661 22.67 16.0145 22.4467 16.1574C22.2233 16.3003 22.0659 16.526 22.009 16.785C21.629 18.9427 20.4433 20.8755 18.6919 22.192C18.4777 22.3484 18.3343 22.5836 18.2934 22.8458C18.2525 23.108 18.3175 23.3757 18.474 23.59C18.6304 23.8043 18.8656 23.9476 19.1278 23.9885C19.39 24.0294 19.6577 23.9644 19.872 23.808C22.0121 22.1994 23.4715 19.8469 23.962 17.215C23.9902 17.0867 23.993 16.954 23.97 16.8247C23.947 16.6953 23.8987 16.5718 23.828 16.4611C23.7572 16.3504 23.6653 16.2547 23.5575 16.1795C23.4498 16.1044 23.3283 16.0512 23.2 16.023ZM20.167 5.24696L21.707 3.70696C21.8025 3.61471 21.8786 3.50437 21.9311 3.38236C21.9835 3.26036 22.011 3.12914 22.0122 2.99636C22.0134 2.86358 21.9881 2.7319 21.9378 2.60901C21.8875 2.48611 21.8132 2.37446 21.7193 2.28057C21.6255 2.18667 21.5138 2.11242 21.3909 2.06214C21.268 2.01186 21.1363 1.98656 21.0035 1.98771C20.8708 1.98886 20.7395 2.01645 20.6175 2.06886C20.4955 2.12127 20.3852 2.19745 20.2929 2.29296L18.7509 3.83496C17.3703 2.73787 15.6813 2.09986 13.9201 2.01021C12.159 1.92055 10.4138 2.38374 8.92895 3.33496L3.42895 6.73496C2.784 7.13355 2.23758 7.67288 1.83062 8.31258C1.42365 8.95227 1.16669 9.67575 1.07896 10.4288C0.991234 11.1819 1.07502 11.9451 1.32405 12.6612C1.57308 13.3773 1.98089 14.0278 2.51695 14.564L9.47595 21.523C10.0131 22.0603 10.6651 22.4688 11.3828 22.7179C12.1006 22.9669 12.8655 23.05 13.62 22.9609C14.3745 22.8717 15.099 22.6127 15.739 22.2033C16.379 21.7938 16.9178 21.2446 17.315 20.597L20.915 14.721C21.7424 13.2452 22.1131 11.557 21.9799 9.87035C21.8467 8.1837 21.2158 6.57457 20.167 5.24696Z"/>
</g>
<defs>
<clipPath id="clip0_406_1909">
<rect width="24" height="24" />
</clipPath>
</defs>
</svg>
